<mxfile host="app.diagrams.net" agent="Mozilla/5.0 (Windows NT 10.0; Win64; x64; rv:140.0) Gecko/20100101 Firefox/140.0" version="27.2.0">
  <diagram name="Page-1" id="e3a06f82-3646-2815-327d-82caf3d4e204">
    <mxGraphModel dx="1429" dy="751" grid="1" gridSize="10" guides="1" tooltips="1" connect="1" arrows="1" fold="1" page="1" pageScale="1.5" pageWidth="1169" pageHeight="826" background="none" math="0" shadow="0">
      <root>
        <mxCell id="0" style=";html=1;" />
        <mxCell id="1" style=";html=1;" parent="0" />
        <mxCell id="6a7d8f32e03d9370-61" value="Outside Networks" style="whiteSpace=wrap;html=1;fillColor=#f8cecc;fontSize=14;strokeColor=none;verticalAlign=top;" parent="1" vertex="1">
          <mxGeometry x="1346.5" y="500" width="373.5" height="312" as="geometry" />
        </mxCell>
        <mxCell id="6a7d8f32e03d9370-60" value="VSphere" style="whiteSpace=wrap;html=1;fillColor=#d5e8d4;fontSize=14;strokeColor=none;verticalAlign=top;" parent="1" vertex="1">
          <mxGeometry x="1346.5" y="100" width="370" height="400" as="geometry" />
        </mxCell>
        <mxCell id="6a7d8f32e03d9370-57" value="Enterprise Networks" style="whiteSpace=wrap;html=1;fillColor=#FFD470;gradientColor=none;fontSize=14;strokeColor=none;verticalAlign=top;" parent="1" vertex="1">
          <mxGeometry x="225.5" y="100" width="1174.5" height="850" as="geometry" />
        </mxCell>
        <mxCell id="6a7d8f32e03d9370-50" style="edgeStyle=none;rounded=0;html=1;startSize=10;endSize=10;jettySize=auto;orthogonalLoop=1;fontSize=14;endArrow=none;endFill=0;strokeWidth=2;" parent="1" source="2k5P8P9Tf0HwRDT1aAcK-7" target="6a7d8f32e03d9370-16" edge="1">
          <mxGeometry relative="1" as="geometry">
            <mxPoint x="1200" y="370" as="sourcePoint" />
          </mxGeometry>
        </mxCell>
        <mxCell id="2k5P8P9Tf0HwRDT1aAcK-2" style="edgeStyle=orthogonalEdgeStyle;rounded=0;orthogonalLoop=1;jettySize=auto;html=1;" edge="1" parent="1" source="6a7d8f32e03d9370-16" target="6a7d8f32e03d9370-61">
          <mxGeometry relative="1" as="geometry">
            <Array as="points">
              <mxPoint x="1531" y="429" />
              <mxPoint x="1533" y="429" />
            </Array>
          </mxGeometry>
        </mxCell>
        <mxCell id="6a7d8f32e03d9370-16" value="&lt;div&gt;Vsphere Client&lt;/div&gt;&lt;div&gt;&lt;br&gt;&lt;/div&gt;" style="verticalLabelPosition=bottom;aspect=fixed;html=1;verticalAlign=top;strokeColor=none;shape=mxgraph.citrix.chassis;fillColor=#66B2FF;gradientColor=#0066CC;fontSize=14;" parent="1" vertex="1">
          <mxGeometry x="1462.75" y="180" width="137.5" height="177.5" as="geometry" />
        </mxCell>
        <mxCell id="nU13eqN6cCJgRVkpO8_u-16" style="edgeStyle=orthogonalEdgeStyle;rounded=0;orthogonalLoop=1;jettySize=auto;html=1;" edge="1" parent="1" source="6a7d8f32e03d9370-19" target="nU13eqN6cCJgRVkpO8_u-14">
          <mxGeometry relative="1" as="geometry">
            <Array as="points">
              <mxPoint x="1082" y="500" />
              <mxPoint x="890" y="500" />
            </Array>
          </mxGeometry>
        </mxCell>
        <mxCell id="6a7d8f32e03d9370-19" value="" style="verticalLabelPosition=bottom;aspect=fixed;html=1;verticalAlign=top;strokeColor=none;shape=mxgraph.citrix.firewall;fillColor=#66B2FF;gradientColor=#0066CC;fontSize=14;" parent="1" vertex="1">
          <mxGeometry x="1045" y="379.5" width="75" height="93" as="geometry" />
        </mxCell>
        <mxCell id="nU13eqN6cCJgRVkpO8_u-15" style="edgeStyle=orthogonalEdgeStyle;rounded=0;orthogonalLoop=1;jettySize=auto;html=1;" edge="1" parent="1" source="6a7d8f32e03d9370-21" target="nU13eqN6cCJgRVkpO8_u-14">
          <mxGeometry relative="1" as="geometry">
            <Array as="points">
              <mxPoint x="770" y="500" />
              <mxPoint x="966" y="500" />
            </Array>
          </mxGeometry>
        </mxCell>
        <mxCell id="nU13eqN6cCJgRVkpO8_u-26" style="edgeStyle=orthogonalEdgeStyle;rounded=0;orthogonalLoop=1;jettySize=auto;html=1;" edge="1" parent="1" source="6a7d8f32e03d9370-21" target="nU13eqN6cCJgRVkpO8_u-25">
          <mxGeometry relative="1" as="geometry" />
        </mxCell>
        <mxCell id="6a7d8f32e03d9370-21" value="" style="verticalLabelPosition=bottom;aspect=fixed;html=1;verticalAlign=top;strokeColor=none;shape=mxgraph.citrix.firewall;fillColor=#66B2FF;gradientColor=#0066CC;fontSize=14;" parent="1" vertex="1">
          <mxGeometry x="645" y="379.5" width="75" height="93" as="geometry" />
        </mxCell>
        <mxCell id="6a7d8f32e03d9370-62" value="&lt;div&gt;Space Lab Network Architecture&lt;/div&gt;" style="text;strokeColor=none;fillColor=none;html=1;fontSize=24;fontStyle=1;verticalAlign=middle;align=center;" parent="1" vertex="1">
          <mxGeometry x="499" y="30" width="861" height="40" as="geometry" />
        </mxCell>
        <mxCell id="2k5P8P9Tf0HwRDT1aAcK-7" value="" style="verticalLabelPosition=bottom;sketch=0;aspect=fixed;html=1;verticalAlign=top;strokeColor=none;align=center;outlineConnect=0;shape=mxgraph.citrix.switch;" vertex="1" parent="1">
          <mxGeometry x="848" y="240" width="92" height="41.5" as="geometry" />
        </mxCell>
        <mxCell id="nU13eqN6cCJgRVkpO8_u-2" style="edgeStyle=orthogonalEdgeStyle;rounded=0;orthogonalLoop=1;jettySize=auto;html=1;" edge="1" parent="1" source="nU13eqN6cCJgRVkpO8_u-1" target="2k5P8P9Tf0HwRDT1aAcK-7">
          <mxGeometry relative="1" as="geometry" />
        </mxCell>
        <mxCell id="nU13eqN6cCJgRVkpO8_u-1" value="" style="verticalLabelPosition=bottom;sketch=0;aspect=fixed;html=1;verticalAlign=top;strokeColor=none;align=center;outlineConnect=0;shape=mxgraph.citrix.pbx_server;" vertex="1" parent="1">
          <mxGeometry x="275" y="218.25" width="65" height="85" as="geometry" />
        </mxCell>
        <mxCell id="nU13eqN6cCJgRVkpO8_u-4" style="edgeStyle=orthogonalEdgeStyle;rounded=0;orthogonalLoop=1;jettySize=auto;html=1;" edge="1" parent="1" source="nU13eqN6cCJgRVkpO8_u-3" target="2k5P8P9Tf0HwRDT1aAcK-7">
          <mxGeometry relative="1" as="geometry">
            <Array as="points">
              <mxPoint x="604" y="261" />
            </Array>
          </mxGeometry>
        </mxCell>
        <mxCell id="nU13eqN6cCJgRVkpO8_u-3" value="" style="verticalLabelPosition=bottom;sketch=0;aspect=fixed;html=1;verticalAlign=top;strokeColor=none;align=center;outlineConnect=0;shape=mxgraph.citrix.laptop_2;" vertex="1" parent="1">
          <mxGeometry x="499" y="293" width="67.05" height="50" as="geometry" />
        </mxCell>
        <mxCell id="nU13eqN6cCJgRVkpO8_u-5" value="&lt;div&gt;CP1&lt;/div&gt;10.100.240.3" style="text;html=1;align=center;verticalAlign=middle;whiteSpace=wrap;rounded=0;" vertex="1" parent="1">
          <mxGeometry x="633.52" y="411" width="60" height="30" as="geometry" />
        </mxCell>
        <mxCell id="nU13eqN6cCJgRVkpO8_u-6" value="&lt;div&gt;SMS&lt;/div&gt;&lt;div&gt;IP:10.100.240.11&lt;/div&gt;" style="text;html=1;align=center;verticalAlign=middle;whiteSpace=wrap;rounded=0;" vertex="1" parent="1">
          <mxGeometry x="360" y="303" width="60" height="30" as="geometry" />
        </mxCell>
        <mxCell id="nU13eqN6cCJgRVkpO8_u-7" value="&lt;div&gt;Mgmt PC&lt;/div&gt;&lt;div&gt;IP:10.100.240.50&lt;/div&gt;" style="text;html=1;align=center;verticalAlign=middle;whiteSpace=wrap;rounded=0;" vertex="1" parent="1">
          <mxGeometry x="573.52" y="351" width="60" height="30" as="geometry" />
        </mxCell>
        <mxCell id="nU13eqN6cCJgRVkpO8_u-8" value="&lt;div&gt;CP2&lt;/div&gt;10.100.240.4" style="text;html=1;align=center;verticalAlign=middle;whiteSpace=wrap;rounded=0;" vertex="1" parent="1">
          <mxGeometry x="1210" y="411" width="60" height="30" as="geometry" />
        </mxCell>
        <mxCell id="nU13eqN6cCJgRVkpO8_u-11" style="edgeStyle=orthogonalEdgeStyle;rounded=0;orthogonalLoop=1;jettySize=auto;html=1;entryX=0.583;entryY=0.134;entryDx=0;entryDy=0;entryPerimeter=0;" edge="1" parent="1" source="2k5P8P9Tf0HwRDT1aAcK-7" target="6a7d8f32e03d9370-21">
          <mxGeometry relative="1" as="geometry">
            <Array as="points">
              <mxPoint x="966" y="320" />
              <mxPoint x="769" y="320" />
            </Array>
          </mxGeometry>
        </mxCell>
        <mxCell id="nU13eqN6cCJgRVkpO8_u-12" style="edgeStyle=orthogonalEdgeStyle;rounded=0;orthogonalLoop=1;jettySize=auto;html=1;entryX=0.493;entryY=0.175;entryDx=0;entryDy=0;entryPerimeter=0;" edge="1" parent="1" source="2k5P8P9Tf0HwRDT1aAcK-7" target="6a7d8f32e03d9370-19">
          <mxGeometry relative="1" as="geometry">
            <Array as="points">
              <mxPoint x="966" y="320" />
              <mxPoint x="1147" y="320" />
            </Array>
          </mxGeometry>
        </mxCell>
        <mxCell id="nU13eqN6cCJgRVkpO8_u-13" value="SYNC" style="text;html=1;align=center;verticalAlign=middle;whiteSpace=wrap;rounded=0;" vertex="1" parent="1">
          <mxGeometry x="936" y="351" width="60" height="30" as="geometry" />
        </mxCell>
        <mxCell id="nU13eqN6cCJgRVkpO8_u-32" style="edgeStyle=orthogonalEdgeStyle;rounded=0;orthogonalLoop=1;jettySize=auto;html=1;" edge="1" parent="1" source="nU13eqN6cCJgRVkpO8_u-14" target="nU13eqN6cCJgRVkpO8_u-31">
          <mxGeometry relative="1" as="geometry" />
        </mxCell>
        <mxCell id="nU13eqN6cCJgRVkpO8_u-34" style="edgeStyle=orthogonalEdgeStyle;rounded=0;orthogonalLoop=1;jettySize=auto;html=1;" edge="1" parent="1" source="nU13eqN6cCJgRVkpO8_u-14" target="nU13eqN6cCJgRVkpO8_u-33">
          <mxGeometry relative="1" as="geometry" />
        </mxCell>
        <mxCell id="nU13eqN6cCJgRVkpO8_u-14" value="" style="verticalLabelPosition=bottom;sketch=0;aspect=fixed;html=1;verticalAlign=top;strokeColor=none;align=center;outlineConnect=0;shape=mxgraph.citrix.switch;" vertex="1" parent="1">
          <mxGeometry x="844" y="570" width="92" height="41.5" as="geometry" />
        </mxCell>
        <mxCell id="nU13eqN6cCJgRVkpO8_u-24" value=".23" style="text;html=1;align=center;verticalAlign=middle;whiteSpace=wrap;rounded=0;" vertex="1" parent="1">
          <mxGeometry x="790" y="390" width="60" height="30" as="geometry" />
        </mxCell>
        <mxCell id="nU13eqN6cCJgRVkpO8_u-25" value="" style="verticalLabelPosition=bottom;sketch=0;aspect=fixed;html=1;verticalAlign=top;strokeColor=none;align=center;outlineConnect=0;shape=mxgraph.citrix.switch;" vertex="1" parent="1">
          <mxGeometry x="850" y="405.25" width="92" height="41.5" as="geometry" />
        </mxCell>
        <mxCell id="nU13eqN6cCJgRVkpO8_u-27" style="edgeStyle=orthogonalEdgeStyle;rounded=0;orthogonalLoop=1;jettySize=auto;html=1;entryX=0.177;entryY=0.484;entryDx=0;entryDy=0;entryPerimeter=0;" edge="1" parent="1" source="nU13eqN6cCJgRVkpO8_u-25" target="6a7d8f32e03d9370-19">
          <mxGeometry relative="1" as="geometry" />
        </mxCell>
        <mxCell id="nU13eqN6cCJgRVkpO8_u-28" value=".24" style="text;html=1;align=center;verticalAlign=middle;whiteSpace=wrap;rounded=0;" vertex="1" parent="1">
          <mxGeometry x="1050" y="390" width="60" height="30" as="geometry" />
        </mxCell>
        <mxCell id="nU13eqN6cCJgRVkpO8_u-29" value="Vswitch" style="text;html=1;align=center;verticalAlign=middle;whiteSpace=wrap;rounded=0;" vertex="1" parent="1">
          <mxGeometry x="940" y="200" width="60" height="30" as="geometry" />
        </mxCell>
        <mxCell id="nU13eqN6cCJgRVkpO8_u-31" value="" style="verticalLabelPosition=bottom;sketch=0;aspect=fixed;html=1;verticalAlign=top;strokeColor=none;align=center;outlineConnect=0;shape=mxgraph.citrix.switch;" vertex="1" parent="1">
          <mxGeometry x="1120" y="620" width="92" height="41.5" as="geometry" />
        </mxCell>
        <mxCell id="nU13eqN6cCJgRVkpO8_u-33" value="" style="verticalLabelPosition=bottom;sketch=0;aspect=fixed;html=1;verticalAlign=top;strokeColor=none;align=center;outlineConnect=0;shape=mxgraph.citrix.dhcp_server;" vertex="1" parent="1">
          <mxGeometry x="370" y="640" width="76" height="90" as="geometry" />
        </mxCell>
        <mxCell id="nU13eqN6cCJgRVkpO8_u-35" value="DHCP:&lt;br&gt;10.100.100.50" style="text;html=1;align=center;verticalAlign=middle;whiteSpace=wrap;rounded=0;" vertex="1" parent="1">
          <mxGeometry x="370" y="740" width="60" height="30" as="geometry" />
        </mxCell>
        <mxCell id="nU13eqN6cCJgRVkpO8_u-40" style="edgeStyle=orthogonalEdgeStyle;rounded=0;orthogonalLoop=1;jettySize=auto;html=1;" edge="1" parent="1" source="nU13eqN6cCJgRVkpO8_u-38" target="nU13eqN6cCJgRVkpO8_u-31">
          <mxGeometry relative="1" as="geometry" />
        </mxCell>
        <mxCell id="nU13eqN6cCJgRVkpO8_u-38" value="" style="verticalLabelPosition=bottom;sketch=0;aspect=fixed;html=1;verticalAlign=top;strokeColor=none;align=center;outlineConnect=0;shape=mxgraph.citrix.laptop_1;" vertex="1" parent="1">
          <mxGeometry x="1021" y="730" width="91" height="77" as="geometry" />
        </mxCell>
        <mxCell id="nU13eqN6cCJgRVkpO8_u-41" style="edgeStyle=orthogonalEdgeStyle;rounded=0;orthogonalLoop=1;jettySize=auto;html=1;" edge="1" parent="1" source="nU13eqN6cCJgRVkpO8_u-39" target="nU13eqN6cCJgRVkpO8_u-31">
          <mxGeometry relative="1" as="geometry">
            <Array as="points">
              <mxPoint x="1166" y="769" />
            </Array>
          </mxGeometry>
        </mxCell>
        <mxCell id="nU13eqN6cCJgRVkpO8_u-39" value="" style="verticalLabelPosition=bottom;sketch=0;aspect=fixed;html=1;verticalAlign=top;strokeColor=none;align=center;outlineConnect=0;shape=mxgraph.citrix.laptop_1;" vertex="1" parent="1">
          <mxGeometry x="1210" y="730" width="91" height="77" as="geometry" />
        </mxCell>
        <mxCell id="nU13eqN6cCJgRVkpO8_u-49" style="edgeStyle=orthogonalEdgeStyle;rounded=0;orthogonalLoop=1;jettySize=auto;html=1;" edge="1" parent="1" source="nU13eqN6cCJgRVkpO8_u-44" target="nU13eqN6cCJgRVkpO8_u-14">
          <mxGeometry relative="1" as="geometry">
            <Array as="points">
              <mxPoint x="568" y="591" />
            </Array>
          </mxGeometry>
        </mxCell>
        <mxCell id="nU13eqN6cCJgRVkpO8_u-44" value="" style="verticalLabelPosition=bottom;sketch=0;aspect=fixed;html=1;verticalAlign=top;strokeColor=none;align=center;outlineConnect=0;shape=mxgraph.citrix.dns_server;" vertex="1" parent="1">
          <mxGeometry x="530" y="640" width="76.5" height="92.5" as="geometry" />
        </mxCell>
        <mxCell id="nU13eqN6cCJgRVkpO8_u-45" value="Text" style="text;html=1;align=center;verticalAlign=middle;whiteSpace=wrap;rounded=0;" vertex="1" parent="1">
          <mxGeometry x="980" y="450" width="60" height="30" as="geometry" />
        </mxCell>
        <mxCell id="nU13eqN6cCJgRVkpO8_u-46" value="Server vlan 200: 10.100.100.0/24" style="text;html=1;align=center;verticalAlign=middle;whiteSpace=wrap;rounded=0;" vertex="1" parent="1">
          <mxGeometry x="250" y="650" width="90" height="70" as="geometry" />
        </mxCell>
        <mxCell id="nU13eqN6cCJgRVkpO8_u-50" value="Text" style="text;html=1;align=center;verticalAlign=middle;whiteSpace=wrap;rounded=0;" vertex="1" parent="1">
          <mxGeometry x="660" y="560" width="60" height="30" as="geometry" />
        </mxCell>
        <mxCell id="nU13eqN6cCJgRVkpO8_u-52" value="&lt;div&gt;DNS:&lt;/div&gt;&lt;div&gt;10.100.100.60&lt;/div&gt;" style="text;html=1;align=center;verticalAlign=middle;whiteSpace=wrap;rounded=0;" vertex="1" parent="1">
          <mxGeometry x="538.25" y="740" width="60" height="30" as="geometry" />
        </mxCell>
        <mxCell id="nU13eqN6cCJgRVkpO8_u-53" value="Users vlan 500: 10.100.300.0/24" style="text;html=1;align=center;verticalAlign=middle;whiteSpace=wrap;rounded=0;" vertex="1" parent="1">
          <mxGeometry x="1270" y="691" width="60" height="30" as="geometry" />
        </mxCell>
        <mxCell id="nU13eqN6cCJgRVkpO8_u-55" value="Text" style="text;html=1;align=center;verticalAlign=middle;whiteSpace=wrap;rounded=0;" vertex="1" parent="1">
          <mxGeometry x="980" y="470" width="60" height="30" as="geometry" />
        </mxCell>
        <mxCell id="nU13eqN6cCJgRVkpO8_u-56" value="&lt;div&gt;PC1&lt;/div&gt;&lt;div&gt;10.10.50.2&lt;/div&gt;" style="text;html=1;align=center;verticalAlign=middle;whiteSpace=wrap;rounded=0;" vertex="1" parent="1">
          <mxGeometry x="1050" y="830" width="60" height="30" as="geometry" />
        </mxCell>
        <mxCell id="nU13eqN6cCJgRVkpO8_u-59" value="DHCP Server pool: 10.10.300.1" style="text;html=1;align=center;verticalAlign=middle;whiteSpace=wrap;rounded=0;" vertex="1" parent="1">
          <mxGeometry x="227.5" y="860" width="135" height="30" as="geometry" />
        </mxCell>
        <mxCell id="nU13eqN6cCJgRVkpO8_u-64" value="&lt;div&gt;PC1&lt;/div&gt;&lt;div&gt;10.10.50.2&lt;/div&gt;" style="text;html=1;align=center;verticalAlign=middle;whiteSpace=wrap;rounded=0;" vertex="1" parent="1">
          <mxGeometry x="1241" y="830" width="60" height="30" as="geometry" />
        </mxCell>
      </root>
    </mxGraphModel>
  </diagram>
</mxfile>
